{"accessors":[{"bufferView":2,"componentType":5126,"count":1723,"max":[1.3319144248962402,2.638357639312744,1.5],"min":[-1.3319144248962402,-2.322460889816284,1.1920928955078125e-7],"type":"VEC3","byteOffset":0},{"bufferView":2,"byteOffset":20676,"componentType":5126,"count":1723,"max":[1,1,1],"min":[-1,-1,-1],"type":"VEC3"},{"bufferView":3,"componentType":5126,"count":1723,"max":[1,1,1,1],"min":[-1,-1,-1,-1],"type":"VEC4","byteOffset":0},{"bufferView":1,"componentType":5126,"count":1723,"max":[0.9799999594688416,0.9792646169662476],"min":[0.019999999552965164,0.019999999552965164],"type":"VEC2","byteOffset":0},{"bufferView":0,"componentType":5125,"count":5280,"max":[1722],"min":[0],"type":"SCALAR","byteOffset":0}],"asset":{"extras":{"author":"cenksanusoglu (https://sketchfab.com/cenksanusoglu)","license":"CC-BY-4.0 (http://creativecommons.org/licenses/by/4.0/)","source":"https://sketchfab.com/models/cbc01f2005474b8fa8747c0c82806d2e","title":"Battery"},"generator":"Sketchfab-3.29.3","version":"2.0"},"bufferViews":[{"buffer":0,"byteLength":21120,"byteOffset":0,"name":"floatBufferViews","target":34963},{"buffer":0,"byteLength":13784,"byteOffset":21120,"byteStride":8,"name":"floatBufferViews","target":34962},{"buffer":0,"byteLength":41352,"byteOffset":34904,"byteStride":12,"name":"floatBufferViews","target":34962},{"buffer":0,"byteLength":27568,"byteOffset":76256,"byteStride":16,"name":"floatBufferViews","target":34962},{"buffer":0,"byteOffset":103824,"byteLength":460},{"buffer":0,"byteOffset":104284,"byteLength":597046},{"buffer":0,"byteOffset":701332,"byteLength":1495}],"buffers":[{"byteLength":702828,"uri":"data:application/octet-stream;base64,"}],"images":[{"bufferView":4,"mimeType":"image/png"},{"bufferView":5,"mimeType":"image/png"},{"bufferView":6,"mimeType":"image/png"}],"materials":[{"doubleSided":true,"emissiveFactor":[0,0,0],"name":"Material_26","normalTexture":{"index":0,"scale":1,"texCoord":0},"pbrMetallicRoughness":{"baseColorFactor":[1,1,1,1],"baseColorTexture":{"index":1,"texCoord":0},"metallicFactor":1,"metallicRoughnessTexture":{"index":2,"texCoord":0},"roughnessFactor":1},"alphaMode":"OPAQUE"}],"meshes":[{"name":"battery_Material #26_0","primitives":[{"attributes":{"NORMAL":1,"POSITION":0,"TANGENT":2,"TEXCOORD_0":3},"indices":4,"material":0,"mode":4}]}],"nodes":[{"children":[1],"name":"RootNode (gltf orientation matrix)","rotation":[-0.7071067811865475,0,0,0.7071067811865476],"translation":[0,0,0],"scale":[1,1,1]},{"children":[2],"name":"RootNode (model correction matrix)"},{"children":[3],"matrix":[1,0,0,0,0,0,1,0,0,-1,0,0,0,0,0,1],"name":"battery.FBX"},{"children":[4],"name":"RootNode"},{"children":[5],"matrix":[1,0,0,0,0,0.999999999999999,4.371138828673792e-8,0,0,-4.371138828673792e-8,0.999999999999999,0,13.49987506866455,3.179574966430664,-5.711540222167969,1],"name":"battery"},{"children":[6],"matrix":[1,0,0,0,0,1,0,0,0,0,1,0,0,-0.15794837474822998,-0.7500000596046448,1],"name":""},{"mesh":0,"name":"battery_Material #26_0"}],"samplers":[{"magFilter":9729,"minFilter":9987,"wrapS":10497,"wrapT":10497}],"scene":0,"scenes":[{"name":"OSG_Scene","nodes":[0]}],"textures":[{"sampler":0,"source":0},{"sampler":0,"source":1},{"sampler":0,"source":2}]}
